<svg width="55" height="53" viewBox="0 0 55 53" fill="none" xmlns="http://www.w3.org/2000/svg">
<path d="M19.2632 37.6667H34.7414C36.9506 37.6667 38.7414 35.8758 38.7414 33.6667V19.3333C38.7414 17.1242 36.9506 15.3333 34.7414 15.3333H19.2632C17.054 15.3333 15.2632 17.1242 15.2632 19.3333V33.6667C15.2632 35.8758 17.054 37.6667 19.2632 37.6667Z" stroke="#202027" stroke-width="2" stroke-linecap="round"/>
<path fill-rule="evenodd" clip-rule="evenodd" d="M23.3073 13.1C23.3073 12.5477 22.8596 12.1 22.3073 12.1C21.755 12.1 21.3073 12.5477 21.3073 13.1V17.5667C21.3073 18.119 21.755 18.5667 22.3073 18.5667C22.8596 18.5667 23.3073 18.119 23.3073 17.5667V13.1ZM32.6986 13.1C32.6986 12.5477 32.2509 12.1 31.6986 12.1C31.1463 12.1 30.6986 12.5477 30.6986 13.1V17.5667C30.6986 18.119 31.1463 18.5667 31.6986 18.5667C32.2509 18.5667 32.6986 18.119 32.6986 17.5667V13.1ZM38.7422 23.0333H15.2639V21.0333H38.7422V23.0333ZM18.8808 26.5C18.8808 25.9477 19.3285 25.5 19.8808 25.5H20.9765C21.5288 25.5 21.9765 25.9477 21.9765 26.5C21.9765 27.0523 21.5288 27.5 20.9765 27.5H19.8808C19.3285 27.5 18.8808 27.0523 18.8808 26.5ZM18.8808 29.85C18.8808 29.2977 19.3285 28.85 19.8808 28.85H20.9765C21.5288 28.85 21.9765 29.2977 21.9765 29.85C21.9765 30.4023 21.5288 30.85 20.9765 30.85H19.8808C19.3285 30.85 18.8808 30.4023 18.8808 29.85ZM19.8808 32.2C19.3285 32.2 18.8808 32.6477 18.8808 33.2C18.8808 33.7523 19.3285 34.2 19.8808 34.2H20.9765C21.5288 34.2 21.9765 33.7523 21.9765 33.2C21.9765 32.6477 21.5288 32.2 20.9765 32.2H19.8808ZM23.2637 26.5C23.2637 25.9477 23.7114 25.5 24.2637 25.5H25.3593C25.9116 25.5 26.3593 25.9477 26.3593 26.5C26.3593 27.0523 25.9116 27.5 25.3593 27.5H24.2637C23.7114 27.5 23.2637 27.0523 23.2637 26.5ZM24.2637 28.85C23.7114 28.85 23.2637 29.2977 23.2637 29.85C23.2637 30.4023 23.7114 30.85 24.2637 30.85H25.3593C25.9116 30.85 26.3593 30.4023 26.3593 29.85C26.3593 29.2977 25.9116 28.85 25.3593 28.85H24.2637ZM23.2637 33.2C23.2637 32.6477 23.7114 32.2 24.2637 32.2H25.3593C25.9116 32.2 26.3593 32.6477 26.3593 33.2C26.3593 33.7523 25.9116 34.2 25.3593 34.2H24.2637C23.7114 34.2 23.2637 33.7523 23.2637 33.2ZM28.6461 25.5C28.0938 25.5 27.6461 25.9477 27.6461 26.5C27.6461 27.0523 28.0938 27.5 28.6461 27.5H29.7417C30.294 27.5 30.7417 27.0523 30.7417 26.5C30.7417 25.9477 30.294 25.5 29.7417 25.5H28.6461ZM27.6461 29.85C27.6461 29.2977 28.0938 28.85 28.6461 28.85H29.7417C30.294 28.85 30.7417 29.2977 30.7417 29.85C30.7417 30.4023 30.294 30.85 29.7417 30.85H28.6461C28.0938 30.85 27.6461 30.4023 27.6461 29.85ZM28.6461 32.2C28.0938 32.2 27.6461 32.6477 27.6461 33.2C27.6461 33.7523 28.0938 34.2 28.6461 34.2H29.7417C30.294 34.2 30.7417 33.7523 30.7417 33.2C30.7417 32.6477 30.294 32.2 29.7417 32.2H28.6461ZM32.0287 26.5C32.0287 25.9477 32.4764 25.5 33.0287 25.5H34.1244C34.6767 25.5 35.1244 25.9477 35.1244 26.5C35.1244 27.0523 34.6767 27.5 34.1244 27.5H33.0287C32.4764 27.5 32.0287 27.0523 32.0287 26.5ZM33.0287 28.85C32.4764 28.85 32.0287 29.2977 32.0287 29.85C32.0287 30.4023 32.4764 30.85 33.0287 30.85H34.1244C34.6767 30.85 35.1244 30.4023 35.1244 29.85C35.1244 29.2977 34.6767 28.85 34.1244 28.85H33.0287Z" fill="#202027"/>
</svg>
