<svg width="28" height="28" viewBox="0 0 28 28" fill="none" xmlns="http://www.w3.org/2000/svg">
<path fill-rule="evenodd" clip-rule="evenodd" d="M1.70711 0.292893C1.31658 -0.0976311 0.683418 -0.0976311 0.292893 0.292893C-0.0976311 0.683418 -0.0976311 1.31658 0.292893 1.70711L12.5832 13.9974L0.292893 26.2878C-0.0976311 26.6783 -0.097631 27.3115 0.292893 27.702C0.683418 28.0925 1.31658 28.0925 1.70711 27.702L13.9974 15.4116L26.2876 27.7018C26.6781 28.0924 27.3113 28.0924 27.7018 27.7018C28.0924 27.3113 28.0924 26.6781 27.7018 26.2876L15.4116 13.9974L27.7018 1.70725C28.0924 1.31673 28.0924 0.68356 27.7018 0.293036C27.3113 -0.0974886 26.6781 -0.0974881 26.2876 0.293036L13.9974 12.5832L1.70711 0.292893Z" fill="#202027"/>
</svg>
