<svg width="93" height="16" viewBox="0 0 93 16" fill="none" xmlns="http://www.w3.org/2000/svg">
<circle cx="8" cy="8" r="7" fill="white" stroke="black" stroke-width="2"/>
<path d="M8.34375 11.1172C7.74479 11.1172 7.23047 10.9857 6.80078 10.7227C6.3737 10.4596 6.04427 10.0964 5.8125 9.63281C5.58333 9.16667 5.46875 8.63021 5.46875 8.02344C5.46875 7.41406 5.58594 6.8763 5.82031 6.41016C6.05469 5.94141 6.38542 5.57682 6.8125 5.31641C7.24219 5.05339 7.75 4.92188 8.33594 4.92188C8.82292 4.92188 9.25391 5.01172 9.62891 5.19141C10.0065 5.36849 10.3073 5.61979 10.5313 5.94531C10.7552 6.26823 10.8828 6.64583 10.9141 7.07812H9.5625C9.50781 6.78906 9.3776 6.54818 9.17188 6.35547C8.96875 6.16016 8.69661 6.0625 8.35547 6.0625C8.06641 6.0625 7.8125 6.14062 7.59375 6.29687C7.375 6.45052 7.20443 6.67187 7.08203 6.96094C6.96224 7.25 6.90234 7.59635 6.90234 8C6.90234 8.40885 6.96224 8.76042 7.08203 9.05469C7.20182 9.34635 7.36979 9.57161 7.58594 9.73047C7.80469 9.88672 8.0612 9.96484 8.35547 9.96484C8.5638 9.96484 8.75 9.92578 8.91406 9.84766C9.08073 9.76693 9.22005 9.65104 9.33203 9.5C9.44401 9.34896 9.52083 9.16536 9.5625 8.94922H10.9141C10.8802 9.3737 10.7552 9.75 10.5391 10.0781C10.3229 10.4036 10.0286 10.6589 9.65625 10.8437C9.28385 11.026 8.84635 11.1172 8.34375 11.1172Z" fill="black"/>
<path d="M19.8594 4L21.9414 10.2969H22.0234L24.1016 4H25.6953L22.875 12H21.0859L18.2695 4H19.8594ZM26.6865 12V6H28.1006V12H26.6865ZM27.3975 5.14844C27.1735 5.14844 26.9808 5.07422 26.8193 4.92578C26.6579 4.77474 26.5771 4.59375 26.5771 4.38281C26.5771 4.16927 26.6579 3.98828 26.8193 3.83984C26.9808 3.6888 27.1735 3.61328 27.3975 3.61328C27.624 3.61328 27.8167 3.6888 27.9756 3.83984C28.137 3.98828 28.2178 4.16927 28.2178 4.38281C28.2178 4.59375 28.137 4.77474 27.9756 4.92578C27.8167 5.07422 27.624 5.14844 27.3975 5.14844ZM32.1719 12.1172C31.5729 12.1172 31.0586 11.9857 30.6289 11.7227C30.2018 11.4596 29.8724 11.0964 29.6406 10.6328C29.4115 10.1667 29.2969 9.63021 29.2969 9.02344C29.2969 8.41406 29.4141 7.8763 29.6484 7.41016C29.8828 6.94141 30.2135 6.57682 30.6406 6.31641C31.0703 6.05339 31.5781 5.92188 32.1641 5.92188C32.651 5.92188 33.082 6.01172 33.457 6.19141C33.8346 6.36849 34.1354 6.61979 34.3594 6.94531C34.5833 7.26823 34.7109 7.64583 34.7422 8.07812H33.3906C33.3359 7.78906 33.2057 7.54818 33 7.35547C32.7969 7.16016 32.5247 7.0625 32.1836 7.0625C31.8945 7.0625 31.6406 7.14062 31.4219 7.29687C31.2031 7.45052 31.0326 7.67187 30.9102 7.96094C30.7904 8.25 30.7305 8.59635 30.7305 9C30.7305 9.40885 30.7904 9.76042 30.9102 10.0547C31.0299 10.3464 31.1979 10.5716 31.4141 10.7305C31.6328 10.8867 31.8893 10.9648 32.1836 10.9648C32.3919 10.9648 32.5781 10.9258 32.7422 10.8477C32.9089 10.7669 33.0482 10.651 33.1602 10.5C33.2721 10.349 33.349 10.1654 33.3906 9.94922H34.7422C34.7083 10.3737 34.5833 10.75 34.3672 11.0781C34.151 11.4036 33.8568 11.6589 33.4844 11.8437C33.112 12.026 32.6745 12.1172 32.1719 12.1172ZM38.8994 6V7.09375H35.4502V6H38.8994ZM36.3018 4.5625H37.7158V10.1953C37.7158 10.3854 37.7445 10.5313 37.8018 10.6328C37.8617 10.7318 37.9398 10.7995 38.0361 10.8359C38.1325 10.8724 38.2393 10.8906 38.3564 10.8906C38.445 10.8906 38.5257 10.8841 38.5986 10.8711C38.6742 10.8581 38.7314 10.8464 38.7705 10.8359L39.0088 11.9414C38.9333 11.9674 38.8252 11.9961 38.6846 12.0273C38.5465 12.0586 38.3773 12.0768 38.1768 12.082C37.8226 12.0924 37.5036 12.0391 37.2197 11.9219C36.9359 11.8021 36.7106 11.6172 36.5439 11.3672C36.3799 11.1172 36.2992 10.8047 36.3018 10.4297V4.5625ZM42.6348 12.1172C42.0488 12.1172 41.541 11.9883 41.1113 11.7305C40.6816 11.4727 40.3483 11.112 40.1113 10.6484C39.877 10.1849 39.7598 9.64323 39.7598 9.02344C39.7598 8.40365 39.877 7.86068 40.1113 7.39453C40.3483 6.92839 40.6816 6.56641 41.1113 6.30859C41.541 6.05078 42.0488 5.92188 42.6348 5.92188C43.2207 5.92188 43.7285 6.05078 44.1582 6.30859C44.5879 6.56641 44.9199 6.92839 45.1543 7.39453C45.3913 7.86068 45.5098 8.40365 45.5098 9.02344C45.5098 9.64323 45.3913 10.1849 45.1543 10.6484C44.9199 11.112 44.5879 11.4727 44.1582 11.7305C43.7285 11.9883 43.2207 12.1172 42.6348 12.1172ZM42.6426 10.9844C42.9603 10.9844 43.2259 10.8971 43.4395 10.7227C43.653 10.5456 43.8118 10.3086 43.916 10.0117C44.0228 9.71484 44.0762 9.38411 44.0762 9.01953C44.0762 8.65234 44.0228 8.32031 43.916 8.02344C43.8118 7.72396 43.653 7.48568 43.4395 7.30859C43.2259 7.13151 42.9603 7.04297 42.6426 7.04297C42.3171 7.04297 42.0462 7.13151 41.8301 7.30859C41.6165 7.48568 41.4564 7.72396 41.3496 8.02344C41.2454 8.32031 41.1934 8.65234 41.1934 9.01953C41.1934 9.38411 41.2454 9.71484 41.3496 10.0117C41.4564 10.3086 41.6165 10.5456 41.8301 10.7227C42.0462 10.8971 42.3171 10.9844 42.6426 10.9844ZM46.71 12V6H48.0811V7H48.1436C48.2529 6.65365 48.4404 6.38672 48.7061 6.19922C48.9743 6.00911 49.2803 5.91406 49.624 5.91406C49.7021 5.91406 49.7894 5.91797 49.8857 5.92578C49.9847 5.93099 50.0667 5.9401 50.1318 5.95312V7.25391C50.0719 7.23307 49.9769 7.21484 49.8467 7.19922C49.7191 7.18099 49.5954 7.17187 49.4756 7.17187C49.2178 7.17187 48.986 7.22786 48.7803 7.33984C48.5771 7.44922 48.417 7.60156 48.2998 7.79687C48.1826 7.99219 48.124 8.21745 48.124 8.47266V12H46.71ZM51.1338 12V4H54.1963C54.7744 4 55.2549 4.09115 55.6377 4.27344C56.0231 4.45312 56.3109 4.69922 56.501 5.01172C56.6937 5.32422 56.79 5.67839 56.79 6.07422C56.79 6.39974 56.7275 6.67839 56.6025 6.91016C56.4775 7.13932 56.3096 7.32552 56.0986 7.46875C55.8877 7.61198 55.652 7.71484 55.3916 7.77734V7.85547C55.6755 7.87109 55.9476 7.95833 56.208 8.11719C56.471 8.27344 56.6859 8.49479 56.8525 8.78125C57.0192 9.06771 57.1025 9.41406 57.1025 9.82031C57.1025 10.2344 57.0023 10.6068 56.8018 10.9375C56.6012 11.2656 56.2992 11.5247 55.8955 11.7148C55.4919 11.9049 54.984 12 54.3721 12H51.1338ZM52.583 10.7891H54.1416C54.6676 10.7891 55.0465 10.6888 55.2783 10.4883C55.5127 10.2852 55.6299 10.0247 55.6299 9.70703C55.6299 9.47005 55.5713 9.25651 55.4541 9.06641C55.3369 8.8737 55.1702 8.72266 54.9541 8.61328C54.738 8.5013 54.4801 8.44531 54.1807 8.44531H52.583V10.7891ZM52.583 7.40234H54.0166C54.2666 7.40234 54.4919 7.35677 54.6924 7.26562C54.8929 7.17187 55.0505 7.04036 55.165 6.87109C55.2822 6.69922 55.3408 6.49609 55.3408 6.26172C55.3408 5.95182 55.2314 5.69661 55.0127 5.49609C54.7965 5.29557 54.4749 5.19531 54.0479 5.19531H52.583V7.40234ZM60.918 12.1172C60.332 12.1172 59.8242 11.9883 59.3945 11.7305C58.9648 11.4727 58.6315 11.112 58.3945 10.6484C58.1602 10.1849 58.043 9.64323 58.043 9.02344C58.043 8.40365 58.1602 7.86068 58.3945 7.39453C58.6315 6.92839 58.9648 6.56641 59.3945 6.30859C59.8242 6.05078 60.332 5.92188 60.918 5.92188C61.5039 5.92188 62.0117 6.05078 62.4414 6.30859C62.8711 6.56641 63.2031 6.92839 63.4375 7.39453C63.6745 7.86068 63.793 8.40365 63.793 9.02344C63.793 9.64323 63.6745 10.1849 63.4375 10.6484C63.2031 11.112 62.8711 11.4727 62.4414 11.7305C62.0117 11.9883 61.5039 12.1172 60.918 12.1172ZM60.9258 10.9844C61.2435 10.9844 61.5091 10.8971 61.7227 10.7227C61.9362 10.5456 62.0951 10.3086 62.1992 10.0117C62.306 9.71484 62.3594 9.38411 62.3594 9.01953C62.3594 8.65234 62.306 8.32031 62.1992 8.02344C62.0951 7.72396 61.9362 7.48568 61.7227 7.30859C61.5091 7.13151 61.2435 7.04297 60.9258 7.04297C60.6003 7.04297 60.3294 7.13151 60.1133 7.30859C59.8997 7.48568 59.7396 7.72396 59.6328 8.02344C59.5286 8.32031 59.4766 8.65234 59.4766 9.01953C59.4766 9.38411 59.5286 9.71484 59.6328 10.0117C59.7396 10.3086 59.8997 10.5456 60.1133 10.7227C60.3294 10.8971 60.6003 10.9844 60.9258 10.9844ZM67.9893 6V7.09375H64.54V6H67.9893ZM65.3916 4.5625H66.8057V10.1953C66.8057 10.3854 66.8343 10.5313 66.8916 10.6328C66.9515 10.7318 67.0296 10.7995 67.126 10.8359C67.2223 10.8724 67.3291 10.8906 67.4463 10.8906C67.5348 10.8906 67.6156 10.8841 67.6885 10.8711C67.764 10.8581 67.8213 10.8464 67.8604 10.8359L68.0986 11.9414C68.0231 11.9674 67.915 11.9961 67.7744 12.0273C67.6364 12.0586 67.4671 12.0768 67.2666 12.082C66.9124 12.0924 66.5934 12.0391 66.3096 11.9219C66.0257 11.8021 65.8005 11.6172 65.6338 11.3672C65.4697 11.1172 65.389 10.8047 65.3916 10.4297V4.5625ZM70.5859 8.48437V12H69.1719V6H70.5234V7.01953H70.5938C70.7318 6.68359 70.9518 6.41667 71.2539 6.21875C71.5586 6.02083 71.9349 5.92188 72.3828 5.92188C72.7969 5.92188 73.1576 6.01042 73.4648 6.1875C73.7747 6.36458 74.0143 6.62109 74.1836 6.95703C74.3555 7.29297 74.4401 7.70052 74.4375 8.17969V12H73.0234V8.39844C73.0234 7.9974 72.9193 7.68359 72.7109 7.45703C72.5052 7.23047 72.2201 7.11719 71.8555 7.11719C71.6081 7.11719 71.388 7.17187 71.1953 7.28125C71.0052 7.38802 70.8555 7.54297 70.7461 7.74609C70.6393 7.94922 70.5859 8.19531 70.5859 8.48437ZM77.6016 12.1211C77.2214 12.1211 76.8789 12.0534 76.5742 11.918C76.2721 11.7799 76.0326 11.5768 75.8555 11.3086C75.681 11.0404 75.5938 10.7096 75.5938 10.3164C75.5938 9.97786 75.6563 9.69792 75.7813 9.47656C75.9063 9.25521 76.0768 9.07812 76.293 8.94531C76.5091 8.8125 76.7526 8.71224 77.0234 8.64453C77.2969 8.57422 77.5794 8.52344 77.8711 8.49219C78.2227 8.45573 78.5078 8.42318 78.7266 8.39453C78.9453 8.36328 79.1042 8.31641 79.2031 8.25391C79.3047 8.1888 79.3555 8.08854 79.3555 7.95312V7.92969C79.3555 7.63542 79.2682 7.40755 79.0938 7.24609C78.9193 7.08464 78.668 7.00391 78.3398 7.00391C77.9935 7.00391 77.7188 7.07943 77.5156 7.23047C77.3151 7.38151 77.1797 7.5599 77.1094 7.76562L75.7891 7.57812C75.8932 7.21354 76.0651 6.90885 76.3047 6.66406C76.5443 6.41667 76.8372 6.23177 77.1836 6.10937C77.5299 5.98438 77.9128 5.92188 78.332 5.92188C78.6211 5.92188 78.9089 5.95573 79.1953 6.02344C79.4818 6.09115 79.7435 6.20312 79.9805 6.35937C80.2174 6.51302 80.4076 6.72266 80.5508 6.98828C80.6966 7.25391 80.7695 7.58594 80.7695 7.98437V12H79.4102V11.1758H79.3633C79.2773 11.3424 79.1563 11.4987 79 11.6445C78.8464 11.7878 78.6523 11.9036 78.418 11.9922C78.1862 12.0781 77.9141 12.1211 77.6016 12.1211ZM77.9688 11.082C78.2526 11.082 78.4987 11.026 78.707 10.9141C78.9154 10.7995 79.0755 10.6484 79.1875 10.4609C79.3021 10.2734 79.3594 10.069 79.3594 9.84766V9.14062C79.3151 9.17708 79.2396 9.21094 79.1328 9.24219C79.0286 9.27344 78.9115 9.30078 78.7813 9.32422C78.651 9.34766 78.5221 9.36849 78.3945 9.38672C78.2669 9.40495 78.1563 9.42057 78.0625 9.43359C77.8516 9.46224 77.6628 9.50911 77.4961 9.57422C77.3294 9.63932 77.1979 9.73047 77.1016 9.84766C77.0052 9.96224 76.957 10.1107 76.957 10.293C76.957 10.5534 77.0521 10.75 77.2422 10.8828C77.4323 11.0156 77.6745 11.082 77.9688 11.082ZM82.1914 12V6H83.5625V7H83.625C83.7344 6.65365 83.9219 6.38672 84.1875 6.19922C84.4557 6.00911 84.7617 5.91406 85.1055 5.91406C85.1836 5.91406 85.2708 5.91797 85.3672 5.92578C85.4661 5.93099 85.5482 5.9401 85.6133 5.95312V7.25391C85.5534 7.23307 85.4583 7.21484 85.3281 7.19922C85.2005 7.18099 85.0768 7.17187 84.957 7.17187C84.6992 7.17187 84.4674 7.22786 84.2617 7.33984C84.0586 7.44922 83.8984 7.60156 83.7813 7.79687C83.6641 7.99219 83.6055 8.21745 83.6055 8.47266V12H82.1914ZM90.377 9.47656V6H91.791V12H90.4199V10.9336H90.3574C90.222 11.2695 89.9993 11.5443 89.6895 11.7578C89.3822 11.9714 89.0033 12.0781 88.5527 12.0781C88.1595 12.0781 87.8118 11.9909 87.5098 11.8164C87.2103 11.6393 86.9759 11.3828 86.8066 11.0469C86.6374 10.7083 86.5527 10.2995 86.5527 9.82031V6H87.9668V9.60156C87.9668 9.98177 88.071 10.2839 88.2793 10.5078C88.4876 10.7318 88.7611 10.8437 89.0996 10.8437C89.3079 10.8437 89.5098 10.793 89.7051 10.6914C89.9004 10.5898 90.0605 10.4388 90.1855 10.2383C90.3132 10.0352 90.377 9.78125 90.377 9.47656Z" fill="black"/>
</svg>
