<svg width="25" height="22" viewBox="0 0 25 22" fill="none" xmlns="http://www.w3.org/2000/svg">
<path d="M17.4003 7.20003V6.40002C17.4003 4.19088 15.6094 2.40002 13.4003 2.40002H8.60025C6.39111 2.40002 4.60025 4.19088 4.60025 6.40002V15.2001C4.60025 17.4092 6.39112 19.2001 8.60026 19.2001H13.4003C15.6094 19.2001 17.4003 17.4092 17.4003 15.2001V14.4" stroke="#202027" stroke-width="2" stroke-linecap="round"/>
<path d="M15.4001 10.8H23.2001M20.8001 13.6L22.893 11.5071C23.2836 11.1166 23.2836 10.4834 22.893 10.0929L20.8001 8.00002" stroke="#202027" stroke-width="2" stroke-linecap="round"/>
<path d="M3.40119 2.77215L7.40118 1.95733C9.2605 1.57858 11 2.99947 11 4.89696V17.103C11 19.0005 9.2605 20.4214 7.40119 20.0427L3.40119 19.2279C2.00385 18.9432 1 17.7143 1 16.2882V5.71178C1 4.28575 2.00385 3.05679 3.40119 2.77215Z" fill="white" stroke="#202027" stroke-width="2"/>
<path d="M7.59961 9.60004V12" stroke="#202027" stroke-width="2" stroke-linecap="round"/>
</svg>
