<svg width="58" height="47" viewBox="0 0 58 47" fill="none" xmlns="http://www.w3.org/2000/svg">
<path d="M1.19318 21.495V18.1818H18.6009V21.495H11.8572V40H7.93679V21.495H1.19318Z" fill="#307EF3"/>
<path d="M48.4545 40H55.848V18.1818H48.3054C46.1392 18.1818 44.2784 18.6186 42.723 19.4922C41.1605 20.3587 39.9602 21.6051 39.1222 23.2315C38.2841 24.858 37.8651 26.804 37.8651 29.0696C37.8651 31.3423 38.2876 33.2955 39.1328 34.929C39.9709 36.5625 41.1818 37.8161 42.7656 38.6896C44.3423 39.5632 46.2386 40 48.4545 40ZM51.8956 36.5803H48.6463C47.1264 36.5803 45.8587 36.3033 44.843 35.7493C43.8274 35.1882 43.0639 34.3537 42.5526 33.2457C42.0412 32.1307 41.7855 30.7386 41.7855 29.0696C41.7855 27.4006 42.0412 26.0156 42.5526 24.9148C43.0639 23.8068 43.8203 22.9794 44.8217 22.4325C45.8161 21.8786 47.0518 21.6016 48.5291 21.6016H51.8956V36.5803ZM27.1424 40.3196C28.7404 40.3196 30.1254 39.968 31.2972 39.2649C32.4691 38.5618 33.3782 37.5781 34.0245 36.3139C34.6637 35.0497 34.9833 33.5724 34.9833 31.8821C34.9833 30.1918 34.6637 28.7109 34.0245 27.4396C33.3782 26.1683 32.4691 25.1811 31.2972 24.478C30.1254 23.7749 28.7404 23.4233 27.1424 23.4233C25.5444 23.4233 24.1594 23.7749 22.9876 24.478C21.8157 25.1811 20.9102 26.1683 20.271 27.4396C19.6246 28.7109 19.3015 30.1918 19.3015 31.8821C19.3015 33.5724 19.6246 35.0497 20.271 36.3139C20.9102 37.5781 21.8157 38.5618 22.9876 39.2649C24.1594 39.968 25.5444 40.3196 27.1424 40.3196ZM27.1211 37.2301C26.2546 37.2301 25.5302 36.9922 24.9478 36.5163C24.3654 36.0334 23.9322 35.3871 23.6481 34.5774C23.3569 33.7678 23.2113 32.8658 23.2113 31.8714C23.2113 30.87 23.3569 29.9645 23.6481 29.1548C23.9322 28.3381 24.3654 27.6882 24.9478 27.2053C25.5302 26.7223 26.2546 26.4808 27.1211 26.4808C28.0089 26.4808 28.7475 26.7223 29.337 27.2053C29.9194 27.6882 30.3562 28.3381 30.6474 29.1548C30.9315 29.9645 31.0735 30.87 31.0735 31.8714C31.0735 32.8658 30.9315 33.7678 30.6474 34.5774C30.3562 35.3871 29.9194 36.0334 29.337 36.5163C28.7475 36.9922 28.0089 37.2301 27.1211 37.2301Z" fill="#FF5E5E"/>
<path d="M27.2287 35.2812C26.4531 35.2812 25.7884 35.0085 25.2344 34.4631C24.6804 33.9176 24.4077 33.2528 24.4162 32.4688C24.4077 31.7017 24.6804 31.0455 25.2344 30.5C25.7884 29.9545 26.4531 29.6818 27.2287 29.6818C27.9787 29.6818 28.6307 29.9545 29.1847 30.5C29.7472 31.0455 30.0327 31.7017 30.0412 32.4688C30.0327 32.9886 29.8963 33.4616 29.6321 33.8878C29.3764 34.3139 29.0355 34.6548 28.6094 34.9105C28.1918 35.1577 27.7315 35.2812 27.2287 35.2812Z" fill="#307EF3"/>
</svg>
