<svg width="19" height="25" viewBox="0 0 19 25" fill="none" xmlns="http://www.w3.org/2000/svg">
<path d="M11.95 3H7.05001C7.28164 1.85888 8.29052 1 9.5 1C10.7095 1 11.7184 1.85888 11.95 3Z" fill="white" stroke="black" stroke-width="2"/>
<path d="M11.7324 23H8.26756C8.61337 23.5978 9.25972 24 10 24C10.7403 24 11.3866 23.5978 11.7324 23Z" fill="white" stroke="black" stroke-width="1.5"/>
<path d="M5.1194 6H13.521C14.4934 6 15.3249 6.6994 15.4915 7.65743L16.537 13.6713L17.5085 19.2594C17.6665 20.1683 16.9669 21 16.0444 21H2.53333C1.81006 21 1.25587 20.3571 1.36247 19.6417L3.14125 7.70521C3.28727 6.72532 4.12868 6 5.1194 6Z" fill="white" stroke="black" stroke-width="2"/>
</svg>
