<svg width="19" height="22" viewBox="0 0 19 22" fill="none" xmlns="http://www.w3.org/2000/svg">
<path fill-rule="evenodd" clip-rule="evenodd" d="M5.5 1C2.73858 1 0.5 3.23858 0.5 6V13C0.5 15.7614 2.73858 18 5.5 18H6L8.77812 20.7781C9.16864 21.1686 9.80181 21.1686 10.1923 20.7781L12.9704 18H13.5C16.2614 18 18.5 15.7614 18.5 13V6C18.5 3.23858 16.2614 1 13.5 1H5.5Z" fill="#202027"/>
<path d="M13.9 13.8V13.8C13.9 12.2536 12.6464 11 11.1 11H8.3C6.7536 11 5.5 12.2536 5.5 13.8V13.8" stroke="white" stroke-width="1.5" stroke-linecap="round"/>
<circle cx="9.69989" cy="7.73333" r="2.98333" stroke="white" stroke-width="1.5"/>
</svg>
