<svg width="22" height="22" viewBox="0 0 22 22" fill="none" xmlns="http://www.w3.org/2000/svg">
<rect x="1" y="1" width="20" height="20" rx="10" stroke="#00FFFF" stroke-width="2"/>
<path d="M12.6924 5.78C12.6924 5.99333 12.639 6.196 12.5324 6.388C12.4684 6.50533 12.3564 6.63333 12.1964 6.772C12.0577 6.88933 11.9137 6.98 11.7644 7.044C11.6044 7.108 11.4337 7.14 11.2524 7.14C11.0924 7.14 10.9377 7.108 10.7884 7.044C10.639 6.98 10.5164 6.88933 10.4204 6.772C10.3137 6.65467 10.239 6.52667 10.1964 6.388C10.1537 6.27067 10.143 6.11067 10.1644 5.908C10.175 5.748 10.2284 5.57733 10.3244 5.396C10.3884 5.268 10.495 5.14 10.6444 5.012C10.7937 4.884 10.9324 4.79333 11.0604 4.74C11.2417 4.66533 11.407 4.628 11.5564 4.628C11.7164 4.628 11.8817 4.66533 12.0524 4.74C12.2017 4.804 12.3244 4.89467 12.4204 5.012C12.527 5.14 12.6017 5.268 12.6444 5.396C12.6764 5.50267 12.6924 5.63067 12.6924 5.78ZM12.0844 15.06C12.3404 15.124 12.4524 15.2893 12.4204 15.556L12.3084 16.5H9.10838L9.31638 14.916L9.92438 9.876L9.46038 9.796L9.23638 9.748L9.14038 9.732C8.87371 9.668 8.75638 9.50267 8.78838 9.236L8.91638 8.292H12.1004L11.2844 14.916L11.7484 14.996L11.9724 15.044C12.0044 15.0547 12.0417 15.06 12.0844 15.06Z" fill="#00E0FF"/>
</svg>
